<mxfile host="app.diagrams.net" modified="2023-09-19T00:20:33.940Z" agent="Mozilla/5.0 (Windows NT 10.0; Win64; x64) AppleWebKit/537.36 (KHTML, like Gecko) Chrome/117.0.0.0 Safari/537.36 Edg/117.0.2045.31" version="21.3.8" etag="FQpSSR-VcAKKQKY2Rdpo" type="github">
  <diagram name="第 1 页" id="sZPL5bIU7kVeQQdH51rQ">
    <mxGraphModel>
      <root>
        <mxCell id="0" />
        <mxCell id="1" parent="0" />
      </root>
    </mxGraphModel>
  </diagram>
</mxfile>
